<mxfile host="app.diagrams.net" modified="2022-01-21T09:10:44.774Z" agent="5.0 (Windows NT 10.0; Win64; x64) AppleWebKit/537.36 (KHTML, like Gecko) Chrome/97.0.4692.71 Safari/537.36 Edg/97.0.1072.62" etag="-dC3rjfI-K17W_SDxN8S" version="16.4.3" type="github">
  <diagram id="MOM0eK0qdkKa3nOfxYq9" name="第 1 页">
    <mxGraphModel dx="1038" dy="667" grid="1" gridSize="10" guides="1" tooltips="1" connect="1" arrows="1" fold="1" page="1" pageScale="1" pageWidth="827" pageHeight="1169" math="0" shadow="0">
      <root>
        <mxCell id="0" />
        <mxCell id="1" parent="0" />
        <mxCell id="Dav6gBriZXszQg8wUCbb-53" value="error_xiangdui" style="edgeStyle=orthogonalEdgeStyle;rounded=0;orthogonalLoop=1;jettySize=auto;html=1;exitX=1.001;exitY=0.417;exitDx=0;exitDy=0;fontSize=14;exitPerimeter=0;" edge="1" parent="1" source="TrSAy2LeDTeCShQNJoEW-2">
          <mxGeometry relative="1" as="geometry">
            <mxPoint x="2560" y="276" as="targetPoint" />
            <Array as="points">
              <mxPoint x="2560" y="276" />
            </Array>
          </mxGeometry>
        </mxCell>
        <mxCell id="TrSAy2LeDTeCShQNJoEW-2" value="main_program" style="swimlane;startSize=0;fontSize=14;fontStyle=1" parent="1" vertex="1">
          <mxGeometry x="219" y="80" width="2181" height="470" as="geometry" />
        </mxCell>
        <mxCell id="Dav6gBriZXszQg8wUCbb-51" value="error" style="edgeStyle=orthogonalEdgeStyle;rounded=0;orthogonalLoop=1;jettySize=auto;html=1;exitX=1;exitY=0.5;exitDx=0;exitDy=0;fontSize=14;" edge="1" parent="TrSAy2LeDTeCShQNJoEW-2" source="Dav6gBriZXszQg8wUCbb-47">
          <mxGeometry relative="1" as="geometry">
            <mxPoint x="2181" y="195" as="targetPoint" />
          </mxGeometry>
        </mxCell>
        <mxCell id="Dav6gBriZXszQg8wUCbb-47" value="" style="swimlane;startSize=0;fontSize=14;" vertex="1" parent="TrSAy2LeDTeCShQNJoEW-2">
          <mxGeometry x="2071" y="150" width="60" height="90" as="geometry" />
        </mxCell>
        <mxCell id="Dav6gBriZXszQg8wUCbb-49" style="edgeStyle=orthogonalEdgeStyle;rounded=0;orthogonalLoop=1;jettySize=auto;html=1;entryX=0;entryY=0.75;entryDx=0;entryDy=0;fontSize=14;" edge="1" parent="TrSAy2LeDTeCShQNJoEW-2" target="Dav6gBriZXszQg8wUCbb-47">
          <mxGeometry relative="1" as="geometry">
            <mxPoint y="430" as="sourcePoint" />
            <Array as="points">
              <mxPoint x="2041" y="430" />
              <mxPoint x="2041" y="218" />
            </Array>
          </mxGeometry>
        </mxCell>
        <mxCell id="TrSAy2LeDTeCShQNJoEW-4" value="&lt;font style=&quot;font-size: 14px&quot;&gt;ratio&lt;/font&gt;" style="endArrow=classic;html=1;rounded=0;labelPosition=center;verticalLabelPosition=top;align=center;verticalAlign=bottom;" parent="1" edge="1">
          <mxGeometry width="50" height="50" relative="1" as="geometry">
            <mxPoint x="160" y="130" as="sourcePoint" />
            <mxPoint x="220" y="130" as="targetPoint" />
          </mxGeometry>
        </mxCell>
        <mxCell id="TrSAy2LeDTeCShQNJoEW-5" value="&lt;font style=&quot;font-size: 14px&quot;&gt;R_dc1&lt;br&gt;R_dc2&lt;br&gt;&lt;/font&gt;" style="endArrow=classic;html=1;rounded=0;horizontal=1;verticalAlign=bottom;labelPosition=center;verticalLabelPosition=top;align=center;" parent="1" edge="1">
          <mxGeometry width="50" height="50" relative="1" as="geometry">
            <mxPoint x="160" y="180" as="sourcePoint" />
            <mxPoint x="220" y="180" as="targetPoint" />
          </mxGeometry>
        </mxCell>
        <mxCell id="TrSAy2LeDTeCShQNJoEW-6" value="&lt;span style=&quot;font-size: 14px&quot;&gt;Rs&lt;/span&gt;" style="endArrow=classic;html=1;rounded=0;labelPosition=center;verticalLabelPosition=top;align=center;verticalAlign=bottom;" parent="1" edge="1">
          <mxGeometry width="50" height="50" relative="1" as="geometry">
            <mxPoint x="160" y="210" as="sourcePoint" />
            <mxPoint x="220" y="210" as="targetPoint" />
            <Array as="points">
              <mxPoint x="190" y="210" />
            </Array>
          </mxGeometry>
        </mxCell>
        <mxCell id="TrSAy2LeDTeCShQNJoEW-7" value="&lt;font style=&quot;font-size: 14px&quot;&gt;Rm1&lt;br&gt;&lt;/font&gt;" style="endArrow=classic;html=1;rounded=0;labelPosition=center;verticalLabelPosition=top;align=center;verticalAlign=bottom;" parent="1" edge="1">
          <mxGeometry width="50" height="50" relative="1" as="geometry">
            <mxPoint x="159" y="240" as="sourcePoint" />
            <mxPoint x="219" y="240" as="targetPoint" />
          </mxGeometry>
        </mxCell>
        <mxCell id="TrSAy2LeDTeCShQNJoEW-8" value="&lt;font style=&quot;font-size: 14px&quot;&gt;Ls&lt;/font&gt;" style="endArrow=classic;html=1;rounded=0;labelPosition=center;verticalLabelPosition=top;align=center;verticalAlign=bottom;" parent="1" edge="1">
          <mxGeometry width="50" height="50" relative="1" as="geometry">
            <mxPoint x="160" y="294.5" as="sourcePoint" />
            <mxPoint x="220" y="294.5" as="targetPoint" />
          </mxGeometry>
        </mxCell>
        <mxCell id="TrSAy2LeDTeCShQNJoEW-9" value="&lt;span style=&quot;font-size: 14px&quot;&gt;C2&lt;/span&gt;" style="endArrow=classic;html=1;rounded=0;labelPosition=center;verticalLabelPosition=top;align=center;verticalAlign=bottom;" parent="1" edge="1">
          <mxGeometry width="50" height="50" relative="1" as="geometry">
            <mxPoint x="160" y="320" as="sourcePoint" />
            <mxPoint x="220" y="320" as="targetPoint" />
          </mxGeometry>
        </mxCell>
        <mxCell id="TrSAy2LeDTeCShQNJoEW-10" value="&lt;span style=&quot;font-size: 14px&quot;&gt;i_Lm2_data&lt;br&gt;&lt;/span&gt;" style="endArrow=classic;html=1;rounded=0;labelPosition=center;verticalLabelPosition=top;align=center;verticalAlign=bottom;" parent="1" edge="1">
          <mxGeometry x="-0.6667" width="50" height="50" relative="1" as="geometry">
            <mxPoint x="160" y="360" as="sourcePoint" />
            <mxPoint x="220" y="360" as="targetPoint" />
            <mxPoint as="offset" />
          </mxGeometry>
        </mxCell>
        <mxCell id="TrSAy2LeDTeCShQNJoEW-11" value="&lt;span style=&quot;font-size: 14px&quot;&gt;phi_Lm2_data&lt;br&gt;&lt;/span&gt;" style="endArrow=classic;html=1;rounded=0;labelPosition=center;verticalLabelPosition=top;align=center;verticalAlign=bottom;" parent="1" edge="1">
          <mxGeometry x="-1" width="50" height="50" relative="1" as="geometry">
            <mxPoint x="161" y="400" as="sourcePoint" />
            <mxPoint x="221" y="400" as="targetPoint" />
            <mxPoint as="offset" />
          </mxGeometry>
        </mxCell>
        <mxCell id="TrSAy2LeDTeCShQNJoEW-13" value="&lt;span style=&quot;font-size: 14px&quot;&gt;u2&lt;/span&gt;" style="endArrow=classic;html=1;rounded=0;labelPosition=center;verticalLabelPosition=top;align=center;verticalAlign=bottom;" parent="1" edge="1">
          <mxGeometry width="50" height="50" relative="1" as="geometry">
            <mxPoint x="160" y="420" as="sourcePoint" />
            <mxPoint x="220" y="420" as="targetPoint" />
          </mxGeometry>
        </mxCell>
        <mxCell id="TrSAy2LeDTeCShQNJoEW-14" value="&lt;span style=&quot;font-size: 14px&quot;&gt;u1_data&lt;/span&gt;" style="endArrow=classic;html=1;rounded=0;labelPosition=center;verticalLabelPosition=top;align=center;verticalAlign=bottom;" parent="1" edge="1">
          <mxGeometry width="50" height="50" relative="1" as="geometry">
            <mxPoint x="160" y="510" as="sourcePoint" />
            <mxPoint x="220" y="510" as="targetPoint" />
          </mxGeometry>
        </mxCell>
        <mxCell id="TrSAy2LeDTeCShQNJoEW-15" value="&lt;span style=&quot;font-size: 14px&quot;&gt;t_data&lt;/span&gt;" style="endArrow=classic;html=1;rounded=0;labelPosition=center;verticalLabelPosition=top;align=center;verticalAlign=bottom;" parent="1" edge="1">
          <mxGeometry width="50" height="50" relative="1" as="geometry">
            <mxPoint x="160" y="440" as="sourcePoint" />
            <mxPoint x="220" y="440" as="targetPoint" />
          </mxGeometry>
        </mxCell>
        <mxCell id="Dav6gBriZXszQg8wUCbb-34" style="edgeStyle=orthogonalEdgeStyle;rounded=0;orthogonalLoop=1;jettySize=auto;html=1;fontSize=14;" edge="1" parent="1" target="Dav6gBriZXszQg8wUCbb-26">
          <mxGeometry relative="1" as="geometry">
            <mxPoint x="250" y="130" as="sourcePoint" />
          </mxGeometry>
        </mxCell>
        <mxCell id="Dav6gBriZXszQg8wUCbb-35" value="ratio" style="edgeLabel;html=1;align=center;verticalAlign=middle;resizable=0;points=[];fontSize=14;" vertex="1" connectable="0" parent="Dav6gBriZXszQg8wUCbb-34">
          <mxGeometry x="0.9036" y="-1" relative="1" as="geometry">
            <mxPoint as="offset" />
          </mxGeometry>
        </mxCell>
        <mxCell id="Dav6gBriZXszQg8wUCbb-48" style="edgeStyle=orthogonalEdgeStyle;rounded=0;orthogonalLoop=1;jettySize=auto;html=1;entryX=0;entryY=0.25;entryDx=0;entryDy=0;fontSize=14;" edge="1" parent="1" target="Dav6gBriZXszQg8wUCbb-47">
          <mxGeometry relative="1" as="geometry">
            <mxPoint x="2240" y="200" as="sourcePoint" />
          </mxGeometry>
        </mxCell>
        <mxCell id="TrSAy2LeDTeCShQNJoEW-28" value="trans" style="swimlane;startSize=0;fontSize=14;" parent="1" vertex="1">
          <mxGeometry x="250" y="120" width="1990" height="350" as="geometry" />
        </mxCell>
        <mxCell id="TrSAy2LeDTeCShQNJoEW-88" value="R_s2" style="edgeStyle=orthogonalEdgeStyle;rounded=0;orthogonalLoop=1;jettySize=auto;html=1;exitX=1;exitY=0.5;exitDx=0;exitDy=0;entryX=-0.004;entryY=0.113;entryDx=0;entryDy=0;entryPerimeter=0;fontSize=14;" parent="TrSAy2LeDTeCShQNJoEW-28" source="TrSAy2LeDTeCShQNJoEW-45" target="TrSAy2LeDTeCShQNJoEW-86" edge="1">
          <mxGeometry x="-0.5329" y="13" relative="1" as="geometry">
            <mxPoint as="offset" />
          </mxGeometry>
        </mxCell>
        <mxCell id="TrSAy2LeDTeCShQNJoEW-45" value="primary/secondary_w" style="swimlane;startSize=0;fontSize=14;" parent="TrSAy2LeDTeCShQNJoEW-28" vertex="1">
          <mxGeometry x="20" y="20" width="210" height="80" as="geometry" />
        </mxCell>
        <mxCell id="TrSAy2LeDTeCShQNJoEW-51" value="&lt;div&gt;&lt;span style=&quot;font-size: 11px&quot;&gt;N=ratio;&lt;/span&gt;&lt;/div&gt;&lt;div&gt;&lt;span style=&quot;font-size: 11px&quot;&gt;R_dcl=R_dcl/N^2;&lt;/span&gt;&lt;/div&gt;&lt;div&gt;&lt;span style=&quot;font-size: 11px&quot;&gt;R_sl=&lt;/span&gt;&lt;span style=&quot;font-size: 11px&quot;&gt;N^2*Rs*R_dcl/(R_dcl+R_dc2);&lt;/span&gt;&lt;/div&gt;&lt;div&gt;&lt;span style=&quot;font-size: 11px&quot;&gt;R_s2=Rs*R_dc2/(R_dcl+R_dc2);&lt;/span&gt;&lt;br&gt;&lt;/div&gt;" style="text;html=1;strokeColor=none;fillColor=none;align=center;verticalAlign=middle;whiteSpace=wrap;rounded=0;fontSize=14;" parent="TrSAy2LeDTeCShQNJoEW-45" vertex="1">
          <mxGeometry x="80" y="24" width="55" height="30" as="geometry" />
        </mxCell>
        <mxCell id="TrSAy2LeDTeCShQNJoEW-49" value="" style="endArrow=none;html=1;rounded=0;fontSize=14;" parent="TrSAy2LeDTeCShQNJoEW-28" edge="1">
          <mxGeometry width="50" height="50" relative="1" as="geometry">
            <mxPoint y="61" as="sourcePoint" />
            <mxPoint x="20" y="61" as="targetPoint" />
          </mxGeometry>
        </mxCell>
        <mxCell id="TrSAy2LeDTeCShQNJoEW-50" value="" style="endArrow=none;html=1;rounded=0;fontSize=14;" parent="TrSAy2LeDTeCShQNJoEW-28" edge="1">
          <mxGeometry width="50" height="50" relative="1" as="geometry">
            <mxPoint y="90" as="sourcePoint" />
            <mxPoint x="20" y="90" as="targetPoint" />
          </mxGeometry>
        </mxCell>
        <mxCell id="TrSAy2LeDTeCShQNJoEW-134" style="edgeStyle=orthogonalEdgeStyle;rounded=0;orthogonalLoop=1;jettySize=auto;html=1;exitX=1;exitY=0.5;exitDx=0;exitDy=0;entryX=0;entryY=0.25;entryDx=0;entryDy=0;fontSize=14;" parent="TrSAy2LeDTeCShQNJoEW-28" source="TrSAy2LeDTeCShQNJoEW-55" target="TrSAy2LeDTeCShQNJoEW-132" edge="1">
          <mxGeometry relative="1" as="geometry">
            <Array as="points">
              <mxPoint x="250" y="120" />
              <mxPoint x="250" y="20" />
              <mxPoint x="1050" y="20" />
              <mxPoint x="1050" y="177" />
            </Array>
          </mxGeometry>
        </mxCell>
        <mxCell id="TrSAy2LeDTeCShQNJoEW-135" value="Rm1" style="edgeLabel;html=1;align=center;verticalAlign=middle;resizable=0;points=[];fontSize=14;" parent="TrSAy2LeDTeCShQNJoEW-134" vertex="1" connectable="0">
          <mxGeometry x="-0.92" y="1" relative="1" as="geometry">
            <mxPoint y="-1" as="offset" />
          </mxGeometry>
        </mxCell>
        <mxCell id="TrSAy2LeDTeCShQNJoEW-55" value="primary_b" style="swimlane;startSize=0;fontSize=14;" parent="TrSAy2LeDTeCShQNJoEW-28" vertex="1">
          <mxGeometry x="20" y="110" width="210" height="20" as="geometry" />
        </mxCell>
        <mxCell id="TrSAy2LeDTeCShQNJoEW-96" value="Rm2" style="edgeStyle=orthogonalEdgeStyle;rounded=0;orthogonalLoop=1;jettySize=auto;html=1;exitX=1;exitY=0.5;exitDx=0;exitDy=0;entryX=0.25;entryY=0;entryDx=0;entryDy=0;fontSize=14;" parent="TrSAy2LeDTeCShQNJoEW-28" source="TrSAy2LeDTeCShQNJoEW-63" target="TrSAy2LeDTeCShQNJoEW-94" edge="1">
          <mxGeometry x="0.5639" relative="1" as="geometry">
            <mxPoint as="offset" />
          </mxGeometry>
        </mxCell>
        <mxCell id="TrSAy2LeDTeCShQNJoEW-63" value="secondary_b" style="swimlane;startSize=0;fontSize=14;" parent="TrSAy2LeDTeCShQNJoEW-28" vertex="1">
          <mxGeometry x="20" y="140" width="210" height="20" as="geometry" />
        </mxCell>
        <mxCell id="Dav6gBriZXszQg8wUCbb-8" style="edgeStyle=orthogonalEdgeStyle;rounded=0;orthogonalLoop=1;jettySize=auto;html=1;exitX=1;exitY=0.5;exitDx=0;exitDy=0;entryX=0;entryY=0.5;entryDx=0;entryDy=0;" edge="1" parent="TrSAy2LeDTeCShQNJoEW-28" source="TrSAy2LeDTeCShQNJoEW-68" target="TrSAy2LeDTeCShQNJoEW-123">
          <mxGeometry relative="1" as="geometry" />
        </mxCell>
        <mxCell id="Dav6gBriZXszQg8wUCbb-9" value="&lt;font style=&quot;font-size: 14px&quot;&gt;Ls&lt;/font&gt;" style="edgeLabel;html=1;align=center;verticalAlign=middle;resizable=0;points=[];" vertex="1" connectable="0" parent="Dav6gBriZXszQg8wUCbb-8">
          <mxGeometry x="-0.1036" y="2" relative="1" as="geometry">
            <mxPoint as="offset" />
          </mxGeometry>
        </mxCell>
        <mxCell id="TrSAy2LeDTeCShQNJoEW-68" value="leakage_i" style="swimlane;startSize=0;fontSize=14;" parent="TrSAy2LeDTeCShQNJoEW-28" vertex="1">
          <mxGeometry x="19" y="166" width="210" height="20" as="geometry" />
        </mxCell>
        <mxCell id="TrSAy2LeDTeCShQNJoEW-69" value="" style="endArrow=none;html=1;rounded=0;fontSize=14;" parent="TrSAy2LeDTeCShQNJoEW-28" edge="1">
          <mxGeometry width="50" height="50" relative="1" as="geometry">
            <mxPoint y="176" as="sourcePoint" />
            <mxPoint x="20" y="176" as="targetPoint" />
          </mxGeometry>
        </mxCell>
        <mxCell id="TrSAy2LeDTeCShQNJoEW-81" value="C2" style="edgeStyle=orthogonalEdgeStyle;rounded=0;orthogonalLoop=1;jettySize=auto;html=1;exitX=1;exitY=0.5;exitDx=0;exitDy=0;entryX=0.002;entryY=0.151;entryDx=0;entryDy=0;entryPerimeter=0;fontSize=14;" parent="TrSAy2LeDTeCShQNJoEW-28" edge="1">
          <mxGeometry x="0.0683" relative="1" as="geometry">
            <mxPoint x="229" y="203" as="sourcePoint" />
            <mxPoint x="340.03999999999996" y="243.56999999999994" as="targetPoint" />
            <Array as="points">
              <mxPoint x="310" y="203" />
              <mxPoint x="310" y="244" />
            </Array>
            <mxPoint as="offset" />
          </mxGeometry>
        </mxCell>
        <mxCell id="TrSAy2LeDTeCShQNJoEW-70" value="secondary_s" style="swimlane;startSize=0;fontSize=14;" parent="TrSAy2LeDTeCShQNJoEW-28" vertex="1">
          <mxGeometry x="19" y="190" width="210" height="20" as="geometry" />
        </mxCell>
        <mxCell id="TrSAy2LeDTeCShQNJoEW-71" value="" style="endArrow=none;html=1;rounded=0;fontSize=14;" parent="TrSAy2LeDTeCShQNJoEW-28" edge="1">
          <mxGeometry width="50" height="50" relative="1" as="geometry">
            <mxPoint y="200" as="sourcePoint" />
            <mxPoint x="20" y="200" as="targetPoint" />
          </mxGeometry>
        </mxCell>
        <mxCell id="TrSAy2LeDTeCShQNJoEW-77" value="data_length" style="edgeStyle=orthogonalEdgeStyle;rounded=0;orthogonalLoop=1;jettySize=auto;html=1;fontSize=14;entryX=0;entryY=0.75;entryDx=0;entryDy=0;horizontal=1;labelPosition=center;verticalLabelPosition=top;align=center;verticalAlign=bottom;" parent="TrSAy2LeDTeCShQNJoEW-28" source="TrSAy2LeDTeCShQNJoEW-73" target="TrSAy2LeDTeCShQNJoEW-75" edge="1">
          <mxGeometry relative="1" as="geometry">
            <mxPoint x="115.5" y="320" as="targetPoint" />
          </mxGeometry>
        </mxCell>
        <mxCell id="TrSAy2LeDTeCShQNJoEW-73" value="length" style="swimlane;startSize=0;fontSize=14;" parent="TrSAy2LeDTeCShQNJoEW-28" vertex="1">
          <mxGeometry x="19" y="310" width="51" height="20" as="geometry" />
        </mxCell>
        <mxCell id="TrSAy2LeDTeCShQNJoEW-85" value="t_data" style="edgeStyle=elbowEdgeStyle;elbow=horizontal;endArrow=classic;html=1;rounded=0;fontSize=14;entryX=0;entryY=0.5;entryDx=0;entryDy=0;" parent="TrSAy2LeDTeCShQNJoEW-73" target="TrSAy2LeDTeCShQNJoEW-79" edge="1">
          <mxGeometry x="0.8481" y="5" width="50" height="50" relative="1" as="geometry">
            <mxPoint x="-19" y="10" as="sourcePoint" />
            <mxPoint x="21" y="-40" as="targetPoint" />
            <Array as="points">
              <mxPoint x="-9" y="-10" />
            </Array>
            <mxPoint as="offset" />
          </mxGeometry>
        </mxCell>
        <mxCell id="TrSAy2LeDTeCShQNJoEW-74" value="" style="endArrow=none;html=1;rounded=0;fontSize=14;" parent="TrSAy2LeDTeCShQNJoEW-28" edge="1">
          <mxGeometry width="50" height="50" relative="1" as="geometry">
            <mxPoint y="320" as="sourcePoint" />
            <mxPoint x="20" y="320" as="targetPoint" />
          </mxGeometry>
        </mxCell>
        <mxCell id="TrSAy2LeDTeCShQNJoEW-82" value="ic2" style="edgeStyle=orthogonalEdgeStyle;rounded=0;orthogonalLoop=1;jettySize=auto;html=1;exitX=1;exitY=0.25;exitDx=0;exitDy=0;entryX=0;entryY=1;entryDx=0;entryDy=0;fontSize=14;" parent="TrSAy2LeDTeCShQNJoEW-28" source="TrSAy2LeDTeCShQNJoEW-75" target="TrSAy2LeDTeCShQNJoEW-79" edge="1">
          <mxGeometry relative="1" as="geometry" />
        </mxCell>
        <mxCell id="TrSAy2LeDTeCShQNJoEW-75" value="" style="swimlane;startSize=0;fontSize=14;" parent="TrSAy2LeDTeCShQNJoEW-28" vertex="1">
          <mxGeometry x="150" y="290" width="160" height="40" as="geometry" />
        </mxCell>
        <mxCell id="TrSAy2LeDTeCShQNJoEW-87" value="ic2" style="edgeStyle=orthogonalEdgeStyle;rounded=0;orthogonalLoop=1;jettySize=auto;html=1;exitX=1;exitY=0.369;exitDx=0;exitDy=0;entryX=0.004;entryY=0.913;entryDx=0;entryDy=0;entryPerimeter=0;fontSize=14;exitPerimeter=0;" parent="TrSAy2LeDTeCShQNJoEW-28" source="TrSAy2LeDTeCShQNJoEW-79" target="TrSAy2LeDTeCShQNJoEW-86" edge="1">
          <mxGeometry relative="1" as="geometry" />
        </mxCell>
        <mxCell id="TrSAy2LeDTeCShQNJoEW-92" style="edgeStyle=orthogonalEdgeStyle;rounded=0;orthogonalLoop=1;jettySize=auto;html=1;exitX=0;exitY=0.75;exitDx=0;exitDy=0;entryX=0;entryY=0.25;entryDx=0;entryDy=0;fontSize=14;" parent="TrSAy2LeDTeCShQNJoEW-28" source="TrSAy2LeDTeCShQNJoEW-79" target="TrSAy2LeDTeCShQNJoEW-86" edge="1">
          <mxGeometry relative="1" as="geometry">
            <Array as="points">
              <mxPoint x="280" y="283" />
              <mxPoint x="280" y="223" />
            </Array>
          </mxGeometry>
        </mxCell>
        <mxCell id="TrSAy2LeDTeCShQNJoEW-93" value="u2" style="edgeLabel;html=1;align=center;verticalAlign=middle;resizable=0;points=[];fontSize=14;" parent="TrSAy2LeDTeCShQNJoEW-92" vertex="1" connectable="0">
          <mxGeometry x="0.8208" y="1" relative="1" as="geometry">
            <mxPoint y="4" as="offset" />
          </mxGeometry>
        </mxCell>
        <mxCell id="TrSAy2LeDTeCShQNJoEW-114" style="edgeStyle=orthogonalEdgeStyle;rounded=0;orthogonalLoop=1;jettySize=auto;html=1;exitX=0;exitY=0.5;exitDx=0;exitDy=0;entryX=0;entryY=0.25;entryDx=0;entryDy=0;fontSize=14;" parent="TrSAy2LeDTeCShQNJoEW-28" source="TrSAy2LeDTeCShQNJoEW-79" target="TrSAy2LeDTeCShQNJoEW-101" edge="1">
          <mxGeometry relative="1" as="geometry">
            <Array as="points">
              <mxPoint x="290" y="265" />
              <mxPoint x="290" y="75" />
            </Array>
          </mxGeometry>
        </mxCell>
        <mxCell id="TrSAy2LeDTeCShQNJoEW-121" value="t_data" style="edgeLabel;html=1;align=center;verticalAlign=middle;resizable=0;points=[];fontSize=14;" parent="TrSAy2LeDTeCShQNJoEW-114" vertex="1" connectable="0">
          <mxGeometry x="0.9204" y="1" relative="1" as="geometry">
            <mxPoint x="-20" as="offset" />
          </mxGeometry>
        </mxCell>
        <mxCell id="TrSAy2LeDTeCShQNJoEW-120" style="edgeStyle=orthogonalEdgeStyle;rounded=0;orthogonalLoop=1;jettySize=auto;html=1;exitX=1.44;exitY=0.369;exitDx=0;exitDy=0;entryX=0;entryY=0.75;entryDx=0;entryDy=0;fontSize=14;exitPerimeter=0;" parent="TrSAy2LeDTeCShQNJoEW-28" source="TrSAy2LeDTeCShQNJoEW-79" target="TrSAy2LeDTeCShQNJoEW-115" edge="1">
          <mxGeometry relative="1" as="geometry">
            <Array as="points">
              <mxPoint x="369" y="270" />
              <mxPoint x="750" y="270" />
              <mxPoint x="750" y="180" />
            </Array>
          </mxGeometry>
        </mxCell>
        <mxCell id="TrSAy2LeDTeCShQNJoEW-79" value="" style="swimlane;startSize=0;fontSize=14;" parent="TrSAy2LeDTeCShQNJoEW-28" vertex="1">
          <mxGeometry x="340" y="230" width="20" height="70" as="geometry" />
        </mxCell>
        <mxCell id="TrSAy2LeDTeCShQNJoEW-84" value="u2" style="edgeStyle=elbowEdgeStyle;elbow=horizontal;endArrow=classic;html=1;rounded=0;fontSize=14;exitX=0.001;exitY=0.859;exitDx=0;exitDy=0;exitPerimeter=0;entryX=0;entryY=0.75;entryDx=0;entryDy=0;" parent="TrSAy2LeDTeCShQNJoEW-28" source="TrSAy2LeDTeCShQNJoEW-28" target="TrSAy2LeDTeCShQNJoEW-79" edge="1">
          <mxGeometry x="0.8879" y="3" width="50" height="50" relative="1" as="geometry">
            <mxPoint x="240" y="180" as="sourcePoint" />
            <mxPoint x="290" y="130" as="targetPoint" />
            <Array as="points">
              <mxPoint x="130" y="290" />
            </Array>
            <mxPoint y="1" as="offset" />
          </mxGeometry>
        </mxCell>
        <mxCell id="TrSAy2LeDTeCShQNJoEW-95" value="u3" style="edgeStyle=orthogonalEdgeStyle;rounded=0;orthogonalLoop=1;jettySize=auto;html=1;exitX=1;exitY=0.5;exitDx=0;exitDy=0;fontSize=14;" parent="TrSAy2LeDTeCShQNJoEW-28" source="TrSAy2LeDTeCShQNJoEW-86" edge="1">
          <mxGeometry relative="1" as="geometry">
            <mxPoint x="489" y="235" as="targetPoint" />
          </mxGeometry>
        </mxCell>
        <mxCell id="TrSAy2LeDTeCShQNJoEW-107" style="edgeStyle=orthogonalEdgeStyle;rounded=0;orthogonalLoop=1;jettySize=auto;html=1;exitX=1;exitY=0.5;exitDx=0;exitDy=0;fontSize=14;" parent="TrSAy2LeDTeCShQNJoEW-28" source="TrSAy2LeDTeCShQNJoEW-86" edge="1">
          <mxGeometry relative="1" as="geometry">
            <Array as="points">
              <mxPoint x="460" y="235" />
              <mxPoint x="460" y="120" />
            </Array>
            <mxPoint x="620" y="120" as="targetPoint" />
          </mxGeometry>
        </mxCell>
        <mxCell id="TrSAy2LeDTeCShQNJoEW-130" value="u3" style="edgeStyle=orthogonalEdgeStyle;rounded=0;orthogonalLoop=1;jettySize=auto;html=1;exitX=1;exitY=0.5;exitDx=0;exitDy=0;entryX=0;entryY=1;entryDx=0;entryDy=0;fontSize=14;" parent="TrSAy2LeDTeCShQNJoEW-28" source="TrSAy2LeDTeCShQNJoEW-86" target="TrSAy2LeDTeCShQNJoEW-128" edge="1">
          <mxGeometry x="0.9188" y="-3" relative="1" as="geometry">
            <Array as="points">
              <mxPoint x="460" y="235" />
              <mxPoint x="460" y="250" />
              <mxPoint x="950" y="250" />
              <mxPoint x="950" y="224" />
            </Array>
            <mxPoint y="1" as="offset" />
          </mxGeometry>
        </mxCell>
        <mxCell id="TrSAy2LeDTeCShQNJoEW-86" value="" style="swimlane;startSize=0;fontSize=14;" parent="TrSAy2LeDTeCShQNJoEW-28" vertex="1">
          <mxGeometry x="410" y="210" width="40" height="50" as="geometry" />
        </mxCell>
        <mxCell id="TrSAy2LeDTeCShQNJoEW-118" style="edgeStyle=orthogonalEdgeStyle;rounded=0;orthogonalLoop=1;jettySize=auto;html=1;exitX=1;exitY=0.5;exitDx=0;exitDy=0;entryX=0;entryY=0.5;entryDx=0;entryDy=0;fontSize=14;" parent="TrSAy2LeDTeCShQNJoEW-28" source="TrSAy2LeDTeCShQNJoEW-94" target="TrSAy2LeDTeCShQNJoEW-115" edge="1">
          <mxGeometry relative="1" as="geometry">
            <Array as="points">
              <mxPoint x="740" y="225" />
              <mxPoint x="740" y="170" />
            </Array>
          </mxGeometry>
        </mxCell>
        <mxCell id="TrSAy2LeDTeCShQNJoEW-119" value="i_Rm2" style="edgeLabel;html=1;align=center;verticalAlign=middle;resizable=0;points=[];fontSize=14;" parent="TrSAy2LeDTeCShQNJoEW-118" vertex="1" connectable="0">
          <mxGeometry x="-0.9076" y="1" relative="1" as="geometry">
            <mxPoint x="24" y="1" as="offset" />
          </mxGeometry>
        </mxCell>
        <mxCell id="TrSAy2LeDTeCShQNJoEW-94" value="" style="swimlane;startSize=0;fontSize=14;" parent="TrSAy2LeDTeCShQNJoEW-28" vertex="1">
          <mxGeometry x="490" y="210" width="50" height="30" as="geometry" />
        </mxCell>
        <mxCell id="TrSAy2LeDTeCShQNJoEW-116" value="i_Lm2" style="edgeStyle=orthogonalEdgeStyle;rounded=0;orthogonalLoop=1;jettySize=auto;html=1;entryX=0;entryY=0.25;entryDx=0;entryDy=0;fontSize=14;labelPosition=left;verticalLabelPosition=bottom;align=right;verticalAlign=top;" parent="TrSAy2LeDTeCShQNJoEW-28" edge="1">
          <mxGeometry x="-0.4182" y="20" relative="1" as="geometry">
            <mxPoint x="690" y="97" as="sourcePoint" />
            <mxPoint x="770" y="154.5" as="targetPoint" />
            <Array as="points">
              <mxPoint x="730" y="97" />
              <mxPoint x="730" y="155" />
            </Array>
            <mxPoint x="-10" y="-17" as="offset" />
          </mxGeometry>
        </mxCell>
        <mxCell id="Dav6gBriZXszQg8wUCbb-11" style="edgeStyle=orthogonalEdgeStyle;rounded=0;orthogonalLoop=1;jettySize=auto;html=1;exitX=0;exitY=0.25;exitDx=0;exitDy=0;entryX=0;entryY=0.75;entryDx=0;entryDy=0;fontSize=14;" edge="1" parent="TrSAy2LeDTeCShQNJoEW-28" source="TrSAy2LeDTeCShQNJoEW-101" target="TrSAy2LeDTeCShQNJoEW-123">
          <mxGeometry relative="1" as="geometry" />
        </mxCell>
        <mxCell id="TrSAy2LeDTeCShQNJoEW-101" value="Lm2_curve" style="swimlane;startSize=0;fontSize=14;" parent="TrSAy2LeDTeCShQNJoEW-28" vertex="1">
          <mxGeometry x="620" y="60" width="70" height="60" as="geometry" />
        </mxCell>
        <mxCell id="TrSAy2LeDTeCShQNJoEW-103" style="edgeStyle=orthogonalEdgeStyle;rounded=0;orthogonalLoop=1;jettySize=auto;html=1;exitX=0.001;exitY=0.687;exitDx=0;exitDy=0;fontSize=14;exitPerimeter=0;" parent="TrSAy2LeDTeCShQNJoEW-28" source="TrSAy2LeDTeCShQNJoEW-28" edge="1">
          <mxGeometry relative="1" as="geometry">
            <mxPoint x="620" y="90" as="targetPoint" />
            <Array as="points">
              <mxPoint x="270" y="241" />
              <mxPoint x="270" y="90" />
              <mxPoint x="620" y="90" />
            </Array>
          </mxGeometry>
        </mxCell>
        <mxCell id="TrSAy2LeDTeCShQNJoEW-108" style="edgeStyle=orthogonalEdgeStyle;rounded=0;orthogonalLoop=1;jettySize=auto;html=1;entryX=0;entryY=0.75;entryDx=0;entryDy=0;fontSize=14;" parent="TrSAy2LeDTeCShQNJoEW-28" edge="1">
          <mxGeometry relative="1" as="geometry">
            <mxPoint y="279" as="sourcePoint" />
            <mxPoint x="620" y="111.5" as="targetPoint" />
            <Array as="points">
              <mxPoint x="260" y="279" />
              <mxPoint x="260" y="112" />
            </Array>
          </mxGeometry>
        </mxCell>
        <mxCell id="TrSAy2LeDTeCShQNJoEW-112" style="edgeStyle=orthogonalEdgeStyle;rounded=0;orthogonalLoop=1;jettySize=auto;html=1;fontSize=14;" parent="TrSAy2LeDTeCShQNJoEW-28" edge="1">
          <mxGeometry relative="1" as="geometry">
            <mxPoint x="668" as="sourcePoint" />
            <mxPoint x="668" y="60" as="targetPoint" />
          </mxGeometry>
        </mxCell>
        <mxCell id="TrSAy2LeDTeCShQNJoEW-124" value="i_Ls" style="edgeStyle=orthogonalEdgeStyle;rounded=0;orthogonalLoop=1;jettySize=auto;html=1;exitX=1;exitY=0.75;exitDx=0;exitDy=0;entryX=0;entryY=0.25;entryDx=0;entryDy=0;fontSize=14;" parent="TrSAy2LeDTeCShQNJoEW-28" target="TrSAy2LeDTeCShQNJoEW-123" edge="1">
          <mxGeometry x="-0.0128" y="-1" relative="1" as="geometry">
            <Array as="points">
              <mxPoint x="810" y="189" />
              <mxPoint x="855" y="189" />
            </Array>
            <mxPoint as="offset" />
            <mxPoint x="810" y="179" as="sourcePoint" />
            <mxPoint x="900" y="190.25" as="targetPoint" />
          </mxGeometry>
        </mxCell>
        <mxCell id="Dav6gBriZXszQg8wUCbb-22" style="edgeStyle=orthogonalEdgeStyle;rounded=0;orthogonalLoop=1;jettySize=auto;html=1;exitX=1;exitY=1;exitDx=0;exitDy=0;entryX=0.5;entryY=1;entryDx=0;entryDy=0;fontSize=14;" edge="1" parent="TrSAy2LeDTeCShQNJoEW-28" source="TrSAy2LeDTeCShQNJoEW-115" target="Dav6gBriZXszQg8wUCbb-19">
          <mxGeometry relative="1" as="geometry">
            <Array as="points">
              <mxPoint x="820" y="190" />
              <mxPoint x="820" y="150" />
              <mxPoint x="1470" y="150" />
            </Array>
          </mxGeometry>
        </mxCell>
        <mxCell id="TrSAy2LeDTeCShQNJoEW-115" value="" style="swimlane;startSize=0;fontSize=14;" parent="TrSAy2LeDTeCShQNJoEW-28" vertex="1">
          <mxGeometry x="770" y="150" width="40" height="40" as="geometry" />
        </mxCell>
        <mxCell id="TrSAy2LeDTeCShQNJoEW-129" value="u_Ls" style="edgeStyle=orthogonalEdgeStyle;rounded=0;orthogonalLoop=1;jettySize=auto;html=1;fontSize=14;" parent="TrSAy2LeDTeCShQNJoEW-28" source="TrSAy2LeDTeCShQNJoEW-123" target="TrSAy2LeDTeCShQNJoEW-128" edge="1">
          <mxGeometry relative="1" as="geometry" />
        </mxCell>
        <mxCell id="Dav6gBriZXszQg8wUCbb-14" style="edgeStyle=orthogonalEdgeStyle;rounded=0;orthogonalLoop=1;jettySize=auto;html=1;exitX=0;exitY=0.75;exitDx=0;exitDy=0;entryX=0.25;entryY=1;entryDx=0;entryDy=0;fontSize=14;" edge="1" parent="TrSAy2LeDTeCShQNJoEW-28" source="TrSAy2LeDTeCShQNJoEW-123" target="TrSAy2LeDTeCShQNJoEW-136">
          <mxGeometry relative="1" as="geometry">
            <Array as="points">
              <mxPoint x="860" y="212" />
              <mxPoint x="860" y="260" />
              <mxPoint x="1315" y="260" />
            </Array>
          </mxGeometry>
        </mxCell>
        <mxCell id="Dav6gBriZXszQg8wUCbb-15" value="t_data" style="edgeLabel;html=1;align=center;verticalAlign=middle;resizable=0;points=[];fontSize=14;" vertex="1" connectable="0" parent="Dav6gBriZXszQg8wUCbb-14">
          <mxGeometry x="0.9316" y="-1" relative="1" as="geometry">
            <mxPoint as="offset" />
          </mxGeometry>
        </mxCell>
        <mxCell id="TrSAy2LeDTeCShQNJoEW-123" value="" style="swimlane;startSize=0;fontSize=14;aspect=fixed;" parent="TrSAy2LeDTeCShQNJoEW-28" vertex="1">
          <mxGeometry x="880" y="178.5" width="41.25" height="45" as="geometry" />
        </mxCell>
        <mxCell id="TrSAy2LeDTeCShQNJoEW-133" value="u4" style="edgeStyle=orthogonalEdgeStyle;rounded=0;orthogonalLoop=1;jettySize=auto;html=1;exitX=1;exitY=0.5;exitDx=0;exitDy=0;entryX=0;entryY=0.518;entryDx=0;entryDy=0;entryPerimeter=0;fontSize=14;" parent="TrSAy2LeDTeCShQNJoEW-28" source="TrSAy2LeDTeCShQNJoEW-128" target="TrSAy2LeDTeCShQNJoEW-132" edge="1">
          <mxGeometry relative="1" as="geometry" />
        </mxCell>
        <mxCell id="Dav6gBriZXszQg8wUCbb-16" style="edgeStyle=orthogonalEdgeStyle;rounded=0;orthogonalLoop=1;jettySize=auto;html=1;exitX=1;exitY=0.5;exitDx=0;exitDy=0;entryX=0.75;entryY=1;entryDx=0;entryDy=0;fontSize=14;" edge="1" parent="TrSAy2LeDTeCShQNJoEW-28" source="TrSAy2LeDTeCShQNJoEW-128" target="TrSAy2LeDTeCShQNJoEW-136">
          <mxGeometry relative="1" as="geometry">
            <Array as="points">
              <mxPoint x="1040" y="197" />
              <mxPoint x="1040" y="250" />
              <mxPoint x="1345" y="250" />
            </Array>
          </mxGeometry>
        </mxCell>
        <mxCell id="TrSAy2LeDTeCShQNJoEW-128" value="" style="swimlane;startSize=0;fontSize=14;aspect=fixed;" parent="TrSAy2LeDTeCShQNJoEW-28" vertex="1">
          <mxGeometry x="980" y="170" width="49.04" height="53.5" as="geometry" />
        </mxCell>
        <mxCell id="TrSAy2LeDTeCShQNJoEW-137" value="i_Rm1" style="edgeStyle=orthogonalEdgeStyle;rounded=0;orthogonalLoop=1;jettySize=auto;html=1;exitX=1;exitY=0.5;exitDx=0;exitDy=0;entryX=0;entryY=0.5;entryDx=0;entryDy=0;fontSize=14;" parent="TrSAy2LeDTeCShQNJoEW-28" source="TrSAy2LeDTeCShQNJoEW-132" target="TrSAy2LeDTeCShQNJoEW-136" edge="1">
          <mxGeometry x="0.0566" relative="1" as="geometry">
            <mxPoint as="offset" />
          </mxGeometry>
        </mxCell>
        <mxCell id="Dav6gBriZXszQg8wUCbb-21" style="edgeStyle=orthogonalEdgeStyle;rounded=0;orthogonalLoop=1;jettySize=auto;html=1;exitX=1;exitY=0.5;exitDx=0;exitDy=0;entryX=0;entryY=0.75;entryDx=0;entryDy=0;fontSize=14;" edge="1" parent="TrSAy2LeDTeCShQNJoEW-28" source="TrSAy2LeDTeCShQNJoEW-132" target="Dav6gBriZXszQg8wUCbb-19">
          <mxGeometry relative="1" as="geometry">
            <Array as="points">
              <mxPoint x="1400" y="197" />
              <mxPoint x="1400" y="95" />
            </Array>
          </mxGeometry>
        </mxCell>
        <mxCell id="TrSAy2LeDTeCShQNJoEW-132" value="" style="swimlane;startSize=0;fontSize=14;" parent="TrSAy2LeDTeCShQNJoEW-28" vertex="1">
          <mxGeometry x="1070" y="156.75" width="50" height="80" as="geometry" />
        </mxCell>
        <mxCell id="Dav6gBriZXszQg8wUCbb-20" value="i_Lm1" style="edgeStyle=orthogonalEdgeStyle;rounded=0;orthogonalLoop=1;jettySize=auto;html=1;fontSize=14;" edge="1" parent="TrSAy2LeDTeCShQNJoEW-28" source="TrSAy2LeDTeCShQNJoEW-136" target="Dav6gBriZXszQg8wUCbb-19">
          <mxGeometry relative="1" as="geometry" />
        </mxCell>
        <mxCell id="TrSAy2LeDTeCShQNJoEW-136" value="Lm1_curve" style="swimlane;startSize=0;fontSize=14;" parent="TrSAy2LeDTeCShQNJoEW-28" vertex="1">
          <mxGeometry x="1300" y="50" width="60" height="60" as="geometry" />
        </mxCell>
        <mxCell id="TrSAy2LeDTeCShQNJoEW-138" style="edgeStyle=orthogonalEdgeStyle;rounded=0;orthogonalLoop=1;jettySize=auto;html=1;exitX=0;exitY=0.633;exitDx=0;exitDy=0;entryX=0;entryY=0.75;entryDx=0;entryDy=0;fontSize=14;exitPerimeter=0;" parent="TrSAy2LeDTeCShQNJoEW-28" source="TrSAy2LeDTeCShQNJoEW-28" target="TrSAy2LeDTeCShQNJoEW-136" edge="1">
          <mxGeometry relative="1" as="geometry">
            <Array as="points">
              <mxPoint x="240" y="222" />
              <mxPoint x="240" y="140" />
              <mxPoint x="1150" y="140" />
              <mxPoint x="1150" y="95" />
            </Array>
          </mxGeometry>
        </mxCell>
        <mxCell id="Dav6gBriZXszQg8wUCbb-13" value="i_Lm1_data" style="edgeLabel;html=1;align=center;verticalAlign=middle;resizable=0;points=[];fontSize=14;" vertex="1" connectable="0" parent="TrSAy2LeDTeCShQNJoEW-138">
          <mxGeometry x="0.9265" y="-5" relative="1" as="geometry">
            <mxPoint x="3" y="4" as="offset" />
          </mxGeometry>
        </mxCell>
        <mxCell id="Dav6gBriZXszQg8wUCbb-3" style="edgeStyle=orthogonalEdgeStyle;rounded=0;orthogonalLoop=1;jettySize=auto;html=1;exitX=0;exitY=0.75;exitDx=0;exitDy=0;entryX=0;entryY=0.25;entryDx=0;entryDy=0;" edge="1" parent="TrSAy2LeDTeCShQNJoEW-28" source="TrSAy2LeDTeCShQNJoEW-28" target="TrSAy2LeDTeCShQNJoEW-136">
          <mxGeometry relative="1" as="geometry">
            <Array as="points">
              <mxPoint y="260" />
              <mxPoint x="250" y="260" />
              <mxPoint x="250" y="130" />
              <mxPoint x="1120" y="130" />
              <mxPoint x="1120" y="65" />
            </Array>
          </mxGeometry>
        </mxCell>
        <mxCell id="Dav6gBriZXszQg8wUCbb-12" value="phi_Lm1_data" style="edgeLabel;html=1;align=center;verticalAlign=middle;resizable=0;points=[];fontSize=14;" vertex="1" connectable="0" parent="Dav6gBriZXszQg8wUCbb-3">
          <mxGeometry x="0.9554" y="-1" relative="1" as="geometry">
            <mxPoint x="-26" y="-13" as="offset" />
          </mxGeometry>
        </mxCell>
        <mxCell id="Dav6gBriZXszQg8wUCbb-18" style="edgeStyle=orthogonalEdgeStyle;rounded=0;orthogonalLoop=1;jettySize=auto;html=1;fontSize=14;" edge="1" parent="TrSAy2LeDTeCShQNJoEW-28">
          <mxGeometry relative="1" as="geometry">
            <mxPoint x="1323" as="sourcePoint" />
            <mxPoint x="1323" y="50" as="targetPoint" />
            <Array as="points">
              <mxPoint x="1323" y="50" />
            </Array>
          </mxGeometry>
        </mxCell>
        <mxCell id="Dav6gBriZXszQg8wUCbb-24" value="i_Rs1" style="edgeStyle=orthogonalEdgeStyle;rounded=0;orthogonalLoop=1;jettySize=auto;html=1;fontSize=14;" edge="1" parent="TrSAy2LeDTeCShQNJoEW-28" source="Dav6gBriZXszQg8wUCbb-19" target="Dav6gBriZXszQg8wUCbb-23">
          <mxGeometry relative="1" as="geometry" />
        </mxCell>
        <mxCell id="Dav6gBriZXszQg8wUCbb-19" value="" style="swimlane;startSize=0;fontSize=14;" vertex="1" parent="TrSAy2LeDTeCShQNJoEW-28">
          <mxGeometry x="1440" y="50" width="60" height="60" as="geometry" />
        </mxCell>
        <mxCell id="Dav6gBriZXszQg8wUCbb-23" value="" style="swimlane;startSize=0;fontSize=14;" vertex="1" parent="TrSAy2LeDTeCShQNJoEW-28">
          <mxGeometry x="1550" y="50" width="60" height="60" as="geometry" />
        </mxCell>
        <mxCell id="TrSAy2LeDTeCShQNJoEW-31" value="" style="endArrow=none;html=1;rounded=0;fontSize=14;" parent="1" edge="1">
          <mxGeometry width="50" height="50" relative="1" as="geometry">
            <mxPoint x="220" y="130" as="sourcePoint" />
            <mxPoint x="250" y="130" as="targetPoint" />
          </mxGeometry>
        </mxCell>
        <mxCell id="TrSAy2LeDTeCShQNJoEW-32" value="" style="endArrow=none;html=1;rounded=0;fontSize=14;" parent="1" edge="1">
          <mxGeometry width="50" height="50" relative="1" as="geometry">
            <mxPoint x="220" y="181" as="sourcePoint" />
            <mxPoint x="250" y="181" as="targetPoint" />
          </mxGeometry>
        </mxCell>
        <mxCell id="TrSAy2LeDTeCShQNJoEW-33" value="" style="endArrow=none;html=1;rounded=0;fontSize=14;" parent="1" edge="1">
          <mxGeometry width="50" height="50" relative="1" as="geometry">
            <mxPoint x="220" y="210" as="sourcePoint" />
            <mxPoint x="250" y="210" as="targetPoint" />
          </mxGeometry>
        </mxCell>
        <mxCell id="TrSAy2LeDTeCShQNJoEW-34" value="" style="endArrow=none;html=1;rounded=0;fontSize=14;" parent="1" edge="1">
          <mxGeometry width="50" height="50" relative="1" as="geometry">
            <mxPoint x="220" y="266" as="sourcePoint" />
            <mxPoint x="250" y="266" as="targetPoint" />
          </mxGeometry>
        </mxCell>
        <mxCell id="TrSAy2LeDTeCShQNJoEW-35" value="" style="endArrow=none;html=1;rounded=0;fontSize=14;" parent="1" edge="1">
          <mxGeometry width="50" height="50" relative="1" as="geometry">
            <mxPoint x="220" y="295" as="sourcePoint" />
            <mxPoint x="250" y="295" as="targetPoint" />
          </mxGeometry>
        </mxCell>
        <mxCell id="TrSAy2LeDTeCShQNJoEW-36" value="" style="endArrow=none;html=1;rounded=0;fontSize=14;" parent="1" edge="1">
          <mxGeometry width="50" height="50" relative="1" as="geometry">
            <mxPoint x="220" y="320" as="sourcePoint" />
            <mxPoint x="250" y="320" as="targetPoint" />
          </mxGeometry>
        </mxCell>
        <mxCell id="TrSAy2LeDTeCShQNJoEW-37" value="" style="endArrow=none;html=1;rounded=0;fontSize=14;" parent="1" edge="1">
          <mxGeometry width="50" height="50" relative="1" as="geometry">
            <mxPoint x="220" y="361" as="sourcePoint" />
            <mxPoint x="250" y="361" as="targetPoint" />
          </mxGeometry>
        </mxCell>
        <mxCell id="TrSAy2LeDTeCShQNJoEW-38" value="" style="endArrow=none;html=1;rounded=0;fontSize=14;" parent="1" edge="1">
          <mxGeometry width="50" height="50" relative="1" as="geometry">
            <mxPoint x="220" y="399" as="sourcePoint" />
            <mxPoint x="250" y="399" as="targetPoint" />
          </mxGeometry>
        </mxCell>
        <mxCell id="TrSAy2LeDTeCShQNJoEW-39" value="" style="endArrow=none;html=1;rounded=0;fontSize=14;" parent="1" edge="1">
          <mxGeometry width="50" height="50" relative="1" as="geometry">
            <mxPoint x="220" y="420" as="sourcePoint" />
            <mxPoint x="250" y="420" as="targetPoint" />
          </mxGeometry>
        </mxCell>
        <mxCell id="TrSAy2LeDTeCShQNJoEW-40" value="" style="endArrow=none;html=1;rounded=0;fontSize=14;" parent="1" edge="1">
          <mxGeometry width="50" height="50" relative="1" as="geometry">
            <mxPoint x="220" y="440" as="sourcePoint" />
            <mxPoint x="250" y="440" as="targetPoint" />
          </mxGeometry>
        </mxCell>
        <mxCell id="TrSAy2LeDTeCShQNJoEW-53" value="&lt;font style=&quot;font-size: 14px&quot;&gt;Rm2&lt;br&gt;&lt;/font&gt;" style="endArrow=classic;html=1;rounded=0;labelPosition=center;verticalLabelPosition=top;align=center;verticalAlign=bottom;" parent="1" edge="1">
          <mxGeometry width="50" height="50" relative="1" as="geometry">
            <mxPoint x="159" y="266" as="sourcePoint" />
            <mxPoint x="219" y="266" as="targetPoint" />
          </mxGeometry>
        </mxCell>
        <mxCell id="TrSAy2LeDTeCShQNJoEW-54" value="" style="endArrow=none;html=1;rounded=0;fontSize=14;exitX=-0.001;exitY=0.321;exitDx=0;exitDy=0;exitPerimeter=0;" parent="1" edge="1">
          <mxGeometry width="50" height="50" relative="1" as="geometry">
            <mxPoint x="218.17000000000007" y="239.87" as="sourcePoint" />
            <mxPoint x="250" y="240" as="targetPoint" />
          </mxGeometry>
        </mxCell>
        <mxCell id="TrSAy2LeDTeCShQNJoEW-64" value="" style="endArrow=none;html=1;rounded=0;fontSize=14;" parent="1" edge="1">
          <mxGeometry width="50" height="50" relative="1" as="geometry">
            <mxPoint x="250" y="181" as="sourcePoint" />
            <mxPoint x="270" y="181" as="targetPoint" />
          </mxGeometry>
        </mxCell>
        <mxCell id="TrSAy2LeDTeCShQNJoEW-65" value="" style="endArrow=none;html=1;rounded=0;fontSize=14;" parent="1" edge="1">
          <mxGeometry width="50" height="50" relative="1" as="geometry">
            <mxPoint x="251" y="240" as="sourcePoint" />
            <mxPoint x="271" y="240" as="targetPoint" />
          </mxGeometry>
        </mxCell>
        <mxCell id="TrSAy2LeDTeCShQNJoEW-66" value="" style="endArrow=none;html=1;rounded=0;fontSize=14;" parent="1" edge="1">
          <mxGeometry width="50" height="50" relative="1" as="geometry">
            <mxPoint x="250" y="266" as="sourcePoint" />
            <mxPoint x="270" y="266" as="targetPoint" />
          </mxGeometry>
        </mxCell>
        <mxCell id="TrSAy2LeDTeCShQNJoEW-78" value="zeros(1,data_length)" style="text;html=1;align=center;verticalAlign=middle;resizable=0;points=[];autosize=1;strokeColor=none;fillColor=none;fontSize=14;" parent="1" vertex="1">
          <mxGeometry x="414" y="423" width="140" height="20" as="geometry" />
        </mxCell>
        <mxCell id="TrSAy2LeDTeCShQNJoEW-97" value="&lt;span style=&quot;font-size: 14px&quot;&gt;i_Lm1_data&lt;br&gt;&lt;/span&gt;" style="endArrow=classic;html=1;rounded=0;labelPosition=center;verticalLabelPosition=top;align=center;verticalAlign=bottom;" parent="1" edge="1">
          <mxGeometry x="-0.6667" width="50" height="50" relative="1" as="geometry">
            <mxPoint x="159" y="340" as="sourcePoint" />
            <mxPoint x="219" y="340" as="targetPoint" />
            <mxPoint as="offset" />
          </mxGeometry>
        </mxCell>
        <mxCell id="TrSAy2LeDTeCShQNJoEW-98" value="" style="endArrow=none;html=1;rounded=0;fontSize=14;" parent="1" edge="1">
          <mxGeometry width="50" height="50" relative="1" as="geometry">
            <mxPoint x="220" y="340" as="sourcePoint" />
            <mxPoint x="250" y="340" as="targetPoint" />
          </mxGeometry>
        </mxCell>
        <mxCell id="TrSAy2LeDTeCShQNJoEW-99" value="&lt;span style=&quot;font-size: 14px&quot;&gt;phi_Lm1_data&lt;br&gt;&lt;/span&gt;" style="endArrow=classic;html=1;rounded=0;labelPosition=center;verticalLabelPosition=top;align=center;verticalAlign=bottom;" parent="1" edge="1">
          <mxGeometry x="-1" width="50" height="50" relative="1" as="geometry">
            <mxPoint x="160" y="380" as="sourcePoint" />
            <mxPoint x="220" y="380" as="targetPoint" />
            <mxPoint as="offset" />
          </mxGeometry>
        </mxCell>
        <mxCell id="TrSAy2LeDTeCShQNJoEW-100" value="" style="endArrow=none;html=1;rounded=0;fontSize=14;" parent="1" edge="1">
          <mxGeometry width="50" height="50" relative="1" as="geometry">
            <mxPoint x="220" y="380" as="sourcePoint" />
            <mxPoint x="250" y="380" as="targetPoint" />
          </mxGeometry>
        </mxCell>
        <mxCell id="TrSAy2LeDTeCShQNJoEW-109" value="a2/b2" style="endArrow=none;html=1;rounded=0;fontSize=14;fontStyle=1" parent="1" edge="1">
          <mxGeometry width="50" height="50" relative="1" as="geometry">
            <mxPoint x="918" y="90" as="sourcePoint" />
            <mxPoint x="918" y="120" as="targetPoint" />
          </mxGeometry>
        </mxCell>
        <mxCell id="Dav6gBriZXszQg8wUCbb-17" value="a1/b1" style="endArrow=none;html=1;rounded=0;fontSize=14;" edge="1" parent="1">
          <mxGeometry width="50" height="50" relative="1" as="geometry">
            <mxPoint x="1573" y="120" as="sourcePoint" />
            <mxPoint x="1573" y="90" as="targetPoint" />
          </mxGeometry>
        </mxCell>
        <mxCell id="Dav6gBriZXszQg8wUCbb-43" value="u1" style="edgeStyle=orthogonalEdgeStyle;rounded=0;orthogonalLoop=1;jettySize=auto;html=1;fontSize=14;" edge="1" parent="1" source="Dav6gBriZXszQg8wUCbb-26" target="Dav6gBriZXszQg8wUCbb-42">
          <mxGeometry relative="1" as="geometry" />
        </mxCell>
        <mxCell id="Dav6gBriZXszQg8wUCbb-26" value="" style="swimlane;startSize=0;fontSize=14;" vertex="1" parent="1">
          <mxGeometry x="1940" y="170" width="60" height="60" as="geometry" />
        </mxCell>
        <mxCell id="Dav6gBriZXszQg8wUCbb-27" value="i_Rs1" style="edgeStyle=orthogonalEdgeStyle;rounded=0;orthogonalLoop=1;jettySize=auto;html=1;fontSize=14;" edge="1" parent="1" source="Dav6gBriZXszQg8wUCbb-23" target="Dav6gBriZXszQg8wUCbb-26">
          <mxGeometry relative="1" as="geometry" />
        </mxCell>
        <mxCell id="Dav6gBriZXszQg8wUCbb-28" style="edgeStyle=orthogonalEdgeStyle;rounded=0;orthogonalLoop=1;jettySize=auto;html=1;exitX=1;exitY=0.25;exitDx=0;exitDy=0;entryX=0;entryY=0.25;entryDx=0;entryDy=0;fontSize=14;" edge="1" parent="1" source="TrSAy2LeDTeCShQNJoEW-45" target="Dav6gBriZXszQg8wUCbb-26">
          <mxGeometry relative="1" as="geometry">
            <Array as="points">
              <mxPoint x="1890" y="150" />
              <mxPoint x="1890" y="185" />
            </Array>
          </mxGeometry>
        </mxCell>
        <mxCell id="Dav6gBriZXszQg8wUCbb-29" value="R_s1" style="edgeLabel;html=1;align=center;verticalAlign=middle;resizable=0;points=[];fontSize=14;" vertex="1" connectable="0" parent="Dav6gBriZXszQg8wUCbb-28">
          <mxGeometry x="-0.8978" relative="1" as="geometry">
            <mxPoint x="54" y="1" as="offset" />
          </mxGeometry>
        </mxCell>
        <mxCell id="Dav6gBriZXszQg8wUCbb-37" value="R_s1" style="edgeLabel;html=1;align=center;verticalAlign=middle;resizable=0;points=[];fontSize=14;" vertex="1" connectable="0" parent="Dav6gBriZXszQg8wUCbb-28">
          <mxGeometry x="0.9328" relative="1" as="geometry">
            <mxPoint x="17" y="-9" as="offset" />
          </mxGeometry>
        </mxCell>
        <mxCell id="Dav6gBriZXszQg8wUCbb-30" style="edgeStyle=orthogonalEdgeStyle;rounded=0;orthogonalLoop=1;jettySize=auto;html=1;exitX=1;exitY=0.5;exitDx=0;exitDy=0;entryX=0.127;entryY=1.003;entryDx=0;entryDy=0;entryPerimeter=0;fontSize=14;" edge="1" parent="1" source="TrSAy2LeDTeCShQNJoEW-128" target="Dav6gBriZXszQg8wUCbb-26">
          <mxGeometry relative="1" as="geometry">
            <Array as="points">
              <mxPoint x="1290" y="317" />
              <mxPoint x="1290" y="370" />
              <mxPoint x="1948" y="370" />
            </Array>
          </mxGeometry>
        </mxCell>
        <mxCell id="Dav6gBriZXszQg8wUCbb-36" value="u4" style="edgeLabel;html=1;align=center;verticalAlign=middle;resizable=0;points=[];fontSize=14;" vertex="1" connectable="0" parent="Dav6gBriZXszQg8wUCbb-30">
          <mxGeometry x="0.9289" y="-1" relative="1" as="geometry">
            <mxPoint as="offset" />
          </mxGeometry>
        </mxCell>
        <mxCell id="Dav6gBriZXszQg8wUCbb-33" value="" style="endArrow=none;html=1;rounded=0;fontSize=14;" edge="1" parent="1">
          <mxGeometry width="50" height="50" relative="1" as="geometry">
            <mxPoint x="250" y="130" as="sourcePoint" />
            <mxPoint x="270" y="160" as="targetPoint" />
          </mxGeometry>
        </mxCell>
        <mxCell id="Dav6gBriZXszQg8wUCbb-44" value="u1" style="edgeStyle=orthogonalEdgeStyle;rounded=0;orthogonalLoop=1;jettySize=auto;html=1;exitX=1;exitY=0.5;exitDx=0;exitDy=0;entryX=1.001;entryY=0.226;entryDx=0;entryDy=0;entryPerimeter=0;fontSize=14;" edge="1" parent="1" source="Dav6gBriZXszQg8wUCbb-42" target="TrSAy2LeDTeCShQNJoEW-28">
          <mxGeometry relative="1" as="geometry">
            <Array as="points">
              <mxPoint x="2160" y="200" />
              <mxPoint x="2160" y="199" />
            </Array>
          </mxGeometry>
        </mxCell>
        <mxCell id="Dav6gBriZXszQg8wUCbb-42" value="修正" style="swimlane;startSize=0;fontSize=14;" vertex="1" parent="1">
          <mxGeometry x="2080" y="170" width="60" height="60" as="geometry" />
        </mxCell>
      </root>
    </mxGraphModel>
  </diagram>
</mxfile>
